<mxfile host="app.diagrams.net" agent="Mozilla/5.0 (Macintosh; Intel Mac OS X 10_15_7) AppleWebKit/537.36 (KHTML, like Gecko) Chrome/135.0.0.0 Safari/537.36" version="26.2.14">
  <diagram name="local" id="4Glealhp40kXoHgHl2j1">
    <mxGraphModel grid="1" page="1" gridSize="10" guides="1" tooltips="1" connect="1" arrows="1" fold="1" pageScale="1" pageWidth="827" pageHeight="1169" math="0" shadow="0">
      <root>
        <mxCell id="0" />
        <mxCell id="1" parent="0" />
        <mxCell id="ziE5GpueBn8EllmUU8ze-85" value="" style="group" connectable="0" vertex="1" parent="1">
          <mxGeometry x="80" y="80" width="960" height="880" as="geometry" />
        </mxCell>
        <mxCell id="ziE5GpueBn8EllmUU8ze-83" value="" style="rounded=0;whiteSpace=wrap;html=1;" vertex="1" parent="ziE5GpueBn8EllmUU8ze-85">
          <mxGeometry width="960" height="880" as="geometry" />
        </mxCell>
        <mxCell id="ziE5GpueBn8EllmUU8ze-71" value="" style="rounded=0;whiteSpace=wrap;html=1;" vertex="1" parent="ziE5GpueBn8EllmUU8ze-85">
          <mxGeometry x="40" y="240" width="880" height="600" as="geometry" />
        </mxCell>
        <mxCell id="ziE5GpueBn8EllmUU8ze-49" value="" style="group" connectable="0" vertex="1" parent="ziE5GpueBn8EllmUU8ze-85">
          <mxGeometry x="407" y="330" width="180" height="180" as="geometry" />
        </mxCell>
        <mxCell id="ziE5GpueBn8EllmUU8ze-39" value="" style="rounded=1;whiteSpace=wrap;html=1;fillColor=#f5f5f5;fontColor=#333333;strokeColor=#666666;" vertex="1" parent="ziE5GpueBn8EllmUU8ze-49">
          <mxGeometry width="180" height="180" as="geometry" />
        </mxCell>
        <mxCell id="ziE5GpueBn8EllmUU8ze-41" value="" style="rounded=0;whiteSpace=wrap;html=1;" vertex="1" parent="ziE5GpueBn8EllmUU8ze-49">
          <mxGeometry x="10" y="10" width="160" height="120" as="geometry" />
        </mxCell>
        <mxCell id="ziE5GpueBn8EllmUU8ze-42" value="Backend Container" style="rounded=0;whiteSpace=wrap;html=1;" vertex="1" parent="ziE5GpueBn8EllmUU8ze-49">
          <mxGeometry x="10" y="130" width="160" height="40" as="geometry" />
        </mxCell>
        <mxCell id="ziE5GpueBn8EllmUU8ze-30" value="" style="shape=image;verticalLabelPosition=bottom;labelBackgroundColor=default;verticalAlign=top;aspect=fixed;imageAspect=0;editableCssRules=.*;image=data:image/svg+xml,PHN2ZyB4bWxucz0iaHR0cDovL3d3dy53My5vcmcvMjAwMC9zdmciIGhlaWdodD0iODc5LjAwMDA3NzA4MzE5MzEiIHdpZHRoPSIyNTAwLjAwMDE1NDE2ODExMzYiIHZpZXdCb3g9IjAgLTAuMDAwMDAxNDMwNTExNDc0NjA5Mzc1IDM5NS45MDAwMjQ0MTQwNjI1IDEzOS4yMDAwMTIyMDcwMzEyNSIgaWQ9IkxheWVyXzEiPjxzdHlsZT4uc3Qwe2ZpbGw6I2MwMH08L3N0eWxlPjxwYXRoIGQ9Ik0zNDQuNiAxMjEuMXYxOC4xaDMyLjdjNi43IDAgMTguMi00LjkgMTguNi0xOC42di03YzAtMTEuNy05LjYtMTguNi0xOC42LTE4LjZIMzYxdi04LjRoMzIuM1Y2OC40aC0zMWMtOCAwLTE4LjcgNi42LTE4LjcgMTguOXY2LjNjMCAxMi4zIDEwLjYgMTguNiAxOC43IDE4LjYgMjIuNS4xLTUuNCAwIDE1LjQgMHY4LjhtLTIwOC4zLTQuM3MxNy41LTEuNSAxNy41LTI0LjEtMjEuMi0yNC43LTIxLjItMjQuN2gtMzguMnY3MS4zaDE5LjJWMTIybDE2LjYgMTcuMmgyOC40bC0yMi4zLTIyLjV6bS03LjQtMTQuNmgtMTUuM1Y4NS44aDE1LjRzNC4zIDEuNiA0LjMgOC4xLTQuNCA4LjItNC40IDguMnptNzIuMy0zMy43aC0xOS41Yy0xMy45IDAtMTguNiAxMi42LTE4LjYgMTguNnY1Mi4yaDE5LjV2LTEyLjVIMjM0djEyLjVoMTguOVY4N2MwLTE1LjItMTMuOC0xOC42LTE4LjYtMTguNnptLS4zIDM4LjFoLTE4LjRWODkuMnMwLTMuOSA2LjEtMy45aDYuN2M1LjQgMCA1LjUgMy45IDUuNSAzLjl2MTcuM2guMXpNMjYxLjggNjguNGgyMC4zdjcwLjhoLTIwLjN6TTMxMC42IDEyMC45VjY4LjRoLTIwLjJ2NzAuOGg0Ny41di0xOC4zeiIgY2xhc3M9InN0MCIvPjxwYXRoIGQ9Ik03IDEzOS4yaDc5cy0xNS4xLTY4LjkgMzQuOS05Ni44YzEwLjktNS4zIDQ1LjYtMjUuMSAxMDIuNCAxNi45IDEuOC0xLjUgMy41LTIuNyAzLjUtMi43cy01Mi01MS45LTEwOS45LTQ2LjFDODcuOCAxMy4xIDUyIDM5LjYgMzEgNzQuNlM3IDEzOS4yIDcgMTM5LjJ6IiBjbGFzcz0ic3QwIi8+PHBhdGggZD0iTTcgMTM5LjJoNzlzLTE1LjEtNjguOSAzNC45LTk2LjhjMTAuOS01LjMgNDUuNi0yNS4xIDEwMi40IDE2LjkgMS44LTEuNSAzLjUtMi43IDMuNS0yLjdzLTUyLTUxLjktMTA5LjktNDYuMUM4Ny44IDEzLjEgNTIgMzkuNiAzMSA3NC42UzcgMTM5LjIgNyAxMzkuMnoiIGNsYXNzPSJzdDAiLz48cGF0aCBkPSJNNyAxMzkuMmg3OXMtMTUuMS02OC45IDM0LjktOTYuOGMxMC45LTUuMyA0NS42LTI1LjEgMTAyLjQgMTYuOSAxLjgtMS41IDMuNS0yLjcgMy41LTIuN3MtNTItNTEuOS0xMDkuOS00Ni4xYy0yOS4yIDIuNi02NSAyOS4xLTg2IDY0LjFTNyAxMzkuMiA3IDEzOS4yek0xNzEuNiAxNi4xbC40LTYuN2MtLjktLjUtMy40LTEuNy05LjctMy41bC0uNCA2LjZjMy4zIDEuMSA2LjUgMi4zIDkuNyAzLjZ6IiBjbGFzcz0ic3QwIi8+PHBhdGggZD0iTTE2Mi4xIDM3LjNsLS40IDYuM2MzLjMuMSA2LjYuNSA5LjkgMS4ybC40LTYuMmMtMy40LS43LTYuNy0xLjEtOS45LTEuM3ptLTM3LTMxLjJoMWwtMi02LjFjLTMuMSAwLTYuMy4yLTkuNi42bDEuOSA1LjljMi45LS4zIDUuOC0uNCA4LjctLjR6bTQuOCAzNi44bDIuMyA2LjljMi45LTEuNCA1LjgtMi42IDguNy0zLjVsLTIuMi02LjZjLTMuNCAxLTYuMyAyLjEtOC44IDMuMnpNODQuNSAxNi42TDgwIDkuN2MtMi41IDEuMy01LjEgMi43LTcuOCA0LjNsNC42IDdjMi42LTEuNiA1LjEtMy4xIDcuNy00LjR6bTIwLjUgNDVsNC44IDcuMmMxLjctMi41IDMuNy00LjggNS45LTcuMWwtNC41LTYuOGMtMi4zIDIuMS00LjQgNC40LTYuMiA2Ljd6TTkwLjUgOTMuOGw4LjEgNi40Yy40LTMuOSAxLjEtNy44IDIuMS0xMS43bC03LjItNS43Yy0xLjMgMy43LTIuMiA3LjQtMyAxMXpNNDYuNyA0Ni4zbC03LjEtNi4yYy0yLjYgMi41LTUuMSA1LTcuNCA3LjVsNy43IDYuNmMyLjEtMi43IDQuNC01LjQgNi44LTcuOXpNMTYuNSA5MUw1IDg2LjhjLTEuOSA0LjMtNCA5LjMtNSAxMmwxMS41IDQuMmMxLjMtMy40IDMuNC04LjMgNS0xMnpNODkgMTE5LjJjLjIgNS4zLjcgOS42IDEuMiAxMi42bDEyIDQuM2MtLjktMy45LTEuOC04LjMtMi40LTEzTDg5IDExOS4yeiIgY2xhc3M9InN0MCIvPjwvc3ZnPg==;" vertex="1" parent="ziE5GpueBn8EllmUU8ze-49">
          <mxGeometry x="18.909999999999968" y="45" width="142.18" height="50" as="geometry" />
        </mxCell>
        <mxCell id="ziE5GpueBn8EllmUU8ze-50" value="" style="group" connectable="0" vertex="1" parent="ziE5GpueBn8EllmUU8ze-85">
          <mxGeometry x="127" y="330" width="180" height="180" as="geometry" />
        </mxCell>
        <mxCell id="ziE5GpueBn8EllmUU8ze-21" value="" style="rounded=1;whiteSpace=wrap;html=1;fillColor=#f5f5f5;fontColor=#333333;strokeColor=#666666;" vertex="1" parent="ziE5GpueBn8EllmUU8ze-50">
          <mxGeometry width="180" height="180" as="geometry" />
        </mxCell>
        <mxCell id="ziE5GpueBn8EllmUU8ze-8" value="" style="rounded=0;whiteSpace=wrap;html=1;" vertex="1" parent="ziE5GpueBn8EllmUU8ze-50">
          <mxGeometry x="10" y="10" width="160" height="120" as="geometry" />
        </mxCell>
        <mxCell id="ziE5GpueBn8EllmUU8ze-9" value="Frontend Container" style="rounded=0;whiteSpace=wrap;html=1;" vertex="1" parent="ziE5GpueBn8EllmUU8ze-50">
          <mxGeometry x="10" y="130" width="160" height="40" as="geometry" />
        </mxCell>
        <mxCell id="ziE5GpueBn8EllmUU8ze-31" value="" style="shape=image;verticalLabelPosition=bottom;labelBackgroundColor=default;verticalAlign=top;aspect=fixed;imageAspect=0;editableCssRules=.*;image=data:image/svg+xml,PHN2ZyB4bWxucz0iaHR0cDovL3d3dy53My5vcmcvMjAwMC9zdmciIHdpZHRoPSIyNTAwLjAwMDU5NjA0NjQ0NzgiIHZpZXdCb3g9IjAgMCA1MTIuMDAwMTIyMDcwMzEyNSAzMDguODgyOTk1NjA1NDY4NzUiIHByZXNlcnZlQXNwZWN0UmF0aW89InhNaWRZTWlkIiBoZWlnaHQ9IjE1MDguOTk5OTc4NTMxMTk5Ij48cGF0aCBkPSJtMTIwLjgxIDgwLjU2MWg5Ni41Njh2Ny42NzZoLTg3LjcxNnY1Ny43NjdoODIuNDg2djcuNjc1aC04Mi40ODZ2NjMuNDIzaDg4LjcyMnY3LjY3NWgtOTcuNTc0em0xMDUuMjIgMGgxMC4yNmw0NS40NjcgNjMuNDIzIDQ2LjQ3My02My40MjQgNjMuMjExLTgwLjU2LTEwMy44NSAxNTAuNjUgNTMuNTE1IDc0LjEyN2gtMTAuNjYzbC00OC42ODYtNjcuNDYyLTQ4Ljg4OCA2Ny40NjJoLTEwLjQ2MWw1My45MTctNzQuMTI4em0xMTguODk4IDcuNjc2di03LjY3N2gxMTAuMDQ4djcuNjc2aC01MC42OTl2MTM2LjU0aC04Ljg1MnYtMTM2LjUzOXptLTM0NC45MjgtNy42NzdoMTEuMDY1bDE1Mi41OCAyMjguMzIzLTYzLjA1My04NC4xMDctOTEuMzM4LTEzMy4zMDgtLjQwMiAxMzMuMzFoLTguODUyem00NTQuMDg0IDEzNC4yMjRjLTEuODA5IDAtMy4xNjUtMS40LTMuMTY1LTMuMjEyIDAtMS44MSAxLjM1Ni0zLjIxMiAzLjE2NS0zLjIxMiAxLjgzIDAgMy4xNjUgMS40MDEgMy4xNjUgMy4yMTJzLTEuMzM1IDMuMjEyLTMuMTY1IDMuMjEyem04LjY5OC04LjQ1aDQuNzM3Yy4wNjQgMi41NjUgMS45MzcgNC4yOSA0LjY5MyA0LjI5IDMuMDc5IDAgNC44MjMtMS44NTQgNC44MjMtNS4zMjV2LTIxLjk5aDQuODIzdjIyLjAxMWMwIDYuMjUyLTMuNjE3IDkuODUzLTkuNjAzIDkuODUzLTUuNjIgMC05LjQ3My0zLjQ5My05LjQ3My04Ljg0em0yNS4zODQtLjI4aDQuNzhjLjQwOSAyLjk1MyAzLjI5NCA0LjgyOCA3LjQ1IDQuODI4IDMuODc1IDAgNi43MTctMi4wMDUgNi43MTctNC43NjQgMC0yLjM3MS0xLjgwOS0zLjc5NC01LjkyMS00Ljc2NGwtNC4wMDUtLjk3Yy01LjYyLTEuMzE2LTguMTgxLTQuMDMyLTguMTgxLTguNjAyIDAtNS41NCA0LjUyMS05LjIyNyAxMS4zMDMtOS4yMjcgNi4zMDggMCAxMC45MTYgMy42ODYgMTEuMTk2IDguOTI1aC00LjY5NGMtLjQ1Mi0yLjg2Ny0yLjk1LTQuNjU3LTYuNTY3LTQuNjU3LTMuODEgMC02LjM1IDEuODMzLTYuMzUgNC42MzUgMCAyLjIyIDEuNjM1IDMuNDkzIDUuNjgzIDQuNDQxbDMuNDIzLjg0MWM2LjM3MyAxLjQ4OCA5IDQuMDc1IDkgOC43NTMgMCA1Ljk1LTQuNjA3IDkuNjgtMTEuOTcgOS42OC02Ljg5IDAtMTEuNTItMy41NTgtMTEuODY0LTkuMTJ6Ii8+PC9zdmc+;" vertex="1" parent="ziE5GpueBn8EllmUU8ze-50">
          <mxGeometry x="31.980000000000018" y="35" width="116.03" height="70" as="geometry" />
        </mxCell>
        <mxCell id="ziE5GpueBn8EllmUU8ze-51" value="" style="group" connectable="0" vertex="1" parent="ziE5GpueBn8EllmUU8ze-85">
          <mxGeometry x="687" y="330" width="180" height="180" as="geometry" />
        </mxCell>
        <mxCell id="ziE5GpueBn8EllmUU8ze-44" value="" style="rounded=1;whiteSpace=wrap;html=1;fillColor=#f5f5f5;fontColor=#333333;strokeColor=#666666;" vertex="1" parent="ziE5GpueBn8EllmUU8ze-51">
          <mxGeometry width="180" height="180" as="geometry" />
        </mxCell>
        <mxCell id="ziE5GpueBn8EllmUU8ze-45" value="" style="group" connectable="0" vertex="1" parent="ziE5GpueBn8EllmUU8ze-51">
          <mxGeometry x="10" y="10" width="160" height="160" as="geometry" />
        </mxCell>
        <mxCell id="ziE5GpueBn8EllmUU8ze-46" value="" style="rounded=0;whiteSpace=wrap;html=1;" vertex="1" parent="ziE5GpueBn8EllmUU8ze-45">
          <mxGeometry width="160" height="120" as="geometry" />
        </mxCell>
        <mxCell id="ziE5GpueBn8EllmUU8ze-47" value="MySQL Container" style="rounded=0;whiteSpace=wrap;html=1;" vertex="1" parent="ziE5GpueBn8EllmUU8ze-45">
          <mxGeometry y="120" width="160" height="40" as="geometry" />
        </mxCell>
        <mxCell id="ziE5GpueBn8EllmUU8ze-29" value="" style="shape=image;verticalLabelPosition=bottom;labelBackgroundColor=default;verticalAlign=top;aspect=fixed;imageAspect=0;editableCssRules=.*;image=data:image/svg+xml,PHN2ZyB4bWxucz0iaHR0cDovL3d3dy53My5vcmcvMjAwMC9zdmciIHZpZXdCb3g9IjAgMCAxOTIuNzU1OTk2NzA0MTAxNTYgMTkyLjc1NTk5NjcwNDEwMTU2IiBoZWlnaHQ9IjI0OTkuOTk5OTU3MjUyOTcyMyIgd2lkdGg9IjI0OTkuOTk5OTU3MjUyOTcyMyI+PGcgY2xpcC1ydWxlPSJldmVub2RkIiBmaWxsLXJ1bGU9ImV2ZW5vZGQiPjxwYXRoIGQ9Ik0wIDBoMTkyLjc1NnYxOTIuNzU2SDBWMHoiIGZpbGw9IiNmZmYiLz48cGF0aCBmaWxsPSIjMDA2NzhjIiBkPSJNOC41MDQgMTI4LjIyN2g1Ljg0NXYtMjMuMDIzbDkuMDEzIDIwLjA3OGMxLjA3IDIuNDA4IDIuNDk5IDMuMjU2IDUuMzU0IDMuMjU2IDIuODU2IDAgNC4yODQtLjg0OCA1LjM1NC0zLjI1Nmw5LjAxMy0yMC4wNzh2MjMuMDIzaDUuOHYtMjIuOTc5YzAtMi4yMy0uODkzLTMuMzAzLTIuNzIyLTMuODgzLTQuNDE3LTEuMzgzLTcuNDA3LS4xNzgtOC43NDUgMi44MTJsLTguODM0IDE5Ljc2Ni04LjU2Ni0xOS43NjZjLTEuMjk0LTIuOTktNC4zMjgtNC4xOTUtOC43NDUtMi44MTItMS44NzQuNTgtMi43NjYgMS42NTItMi43NjYgMy44ODN2MjIuOTc5aC0uMDAxek01My43NDYgMTA5LjQ4Nmg1Ljh2MTIuNjcyYy0uMDQ0LjcxMy4yMjMgMi4zMiAzLjQzNiAyLjM2NSAxLjYwNi4wNDMgMTIuNTM3IDAgMTIuNjI2IDB2LTE1LjA4Mmg1Ljg0NWMuMDQ0IDAgMCAyMC41NjggMCAyMC42NTguMDQ0IDUuMDg2LTYuMjkxIDYuMTU2LTkuMTkxIDYuMjQ2SDUzLjg4di0zLjkyNnMxOC4zMzguMDQ1IDE4LjM4MiAwYzMuNzQ4LS4zNTcgMy4zMDItMi4yMyAzLjMwMi0yLjg1NXYtMS41MThINjMuMjA1Yy01Ljc1Ni0uMDg4LTkuNDE1LTIuNTg4LTkuNDU5LTUuNDg4IDAtLjI2Ny4xMzQtMTIuOTM3IDAtMTMuMDcyek0xNzkuMDc2IDk0Ljg5NmMtMy41NjgtLjA4OS02LjI5MS4yMjMtOC42NTYgMS4yNDktLjY2OC4yNjgtMS42OTUuMjY4LTEuODI4IDEuMTE2LjM1Ny4zNTUuNDQ1LjkzNi43MTMgMS40MjguNTguODkzIDEuNTE4IDIuMDk2IDIuMzY1IDIuNzIxLjg5My43MTUgMS44MyAxLjQyOCAyLjgxMSAyLjA1MyAxLjc4NSAxLjA3IDMuNzQ4IDEuNjUgNS4zOTggMi43MjMgMS4wMjcuNjIzIDIuMDA4IDEuNDI4IDIuOTkgMi4xNDEuNDQ1LjM1Ny44MDMuODkzIDEuMzgzIDEuMTE1di0uMDg4Yy0uMzEyLS40MDItLjQwMi0uOTgyLS42Ny0xLjQzbC0xLjMzOC0xLjMzOGMtMS4yOTMtMS42OTUtMi45NDUtMy4yMTMtNC42ODYtNC40NjEtMS4zODMtLjk4Mi00LjUwNi0yLjM2NS01LjA4Ni0zLjk3MS0uMDQ1LS4wNDUtLjA5LS4wNDUtLjA5LS4wOS45ODItLjEzNSAyLjE0My0uNDkgMy4wMzUtLjcxNSAxLjUxOC0uNCAyLjktLjMxMiA0LjQ2MS0uNzEzLjcxNS0uMjI0IDEuNDI4LS40MDIgMi4xNDMtLjYyNXYtLjQwMmMtLjgwMy0uODAzLTEuMzM4LTEuOTE4LTIuMjMtMi42MzItMi4yNzUtMS45NjMtNC43NzUtMy44ODItNy4zMTgtNS40ODgtMS40MjgtLjkzNy0zLjE2OC0xLjUxNy00LjY4NC0yLjI3NS0uNDkyLS4yMjMtMS4zODUtLjM1Ny0xLjc0LS44MDMtLjgwNS0uOTgyLTEuMjA1LTIuMjc2LTEuODMtMy40MzZhMTIzLjQ1IDEyMy40NSAwIDAgMS0zLjY1OC03Ljc2NGMtLjc1OC0xLjc0LTEuMjk1LTMuNDgtMi4yMy01LjA4Ny00LjY0MS03LjU4NS05LjU5NC0xMi4xOC0xNy4zMTItMTYuNjg3LTEuNjUtLjkzNy0zLjYxMy0xLjMzOC01LjcxMS0xLjgyOS0xLjExNS0uMDktMi4yMy0uMTM0LTMuMzQ2LS4yMjQtLjY3LS4yNjgtMS4zODMtMS4xMTUtMi4wNTMtMS41MTctMi41NDMtMS42MDYtOS4xMDItNS4xMzEtMTAuOTc3LS40OTEtMS4yMDUgMi45IDEuNzg1IDUuNzU2IDIuODU1IDcuMjI5Ljc2IDEuMDI2IDEuNjk1IDIuMTg3IDIuMjMyIDMuMzQ2LjM1NS43NTguNCAxLjUxNy43MTMgMi4zMi43NTggMi4wMDggMS4zODMgNC4xOTQgMi4zMiA2LjAyMy40OS45MzcgMS4wMjUgMS45MTkgMS42NSAyLjc2Ny4zNTcuNDkxIDEuMDI3LjcxNCAxLjExNSAxLjUxNy0uNjI1Ljg5Mi0uNjY4IDIuMjMxLTEuMDI1IDMuMzQ2LTEuNTYyIDUuMDQyLS45ODIgMTEuMjQ0IDEuMzM4IDE0Ljk5MS43MTUgMS4xMTUgMi4zNjUgMy41NjkgNC42ODYgMi42MzMgMi4wMDgtLjg0OCAxLjU2MS0zLjM0NyAyLjE0MS01LjYyMi4xMzUtLjQ5MS4wNDUtLjg0OC4zMTItMS4yMDV2LjA4OWMuNTggMS4yNDkgMS4yMDUgMi40NTQgMS44MyAzLjY1OCAxLjMzOCAyLjE4NyAzLjc0OCA0LjUwNyA1LjgwMSA2LjAyMyAxLjAyNS44MDMgMS44NzMgMi4xODcgMy4yNTYgMi42MzJ2LS4wOWgtLjEzM2MtLjI2OC0uNC0uNjctLjU3OS0uOTgyLS44OTItLjgwMy0uODAzLTEuNjk1LTEuNzg1LTIuMzY1LTIuNjc3LTEuODI4LTIuNDk5LTMuNDc5LTUuMjY1LTQuOTk2LTguMTIxLS43MTUtMS4zODMtMS4zNC0yLjktMS45MTgtNC4yODMtLjIyNS0uNTM1LS4yMjUtMS4zMzgtLjcxNS0xLjY1MS0uNjcgMS4wMjYtMS42MDUgMS44NzQtMi4xNDMgMy4wNzktLjgwMyAxLjkxOS0uOTM2IDQuMjgzLTEuMjAzIDYuNjkzLS4xOC4wODktLjEzNS4wNDQtLjIyNS4xMzQtMS40MjYtLjM1Ny0xLjkxOC0xLjgzLTIuNDUzLTMuMDc5LTEuMjkzLTMuMTY4LTEuNTYyLTguMjU0LS40MDItMTEuOTEzLjMxMi0uOTM3IDEuNjk3LTMuODgyIDEuMTE3LTQuNzc0LS4yNy0uODQ4LTEuMTE3LTEuMzgzLTEuNjA3LTIuMDUyLS42MjUtLjgwMy0xLjIwNS0xLjg3NC0xLjY1LTIuODExLTEuMDctMi40OTktMS41NjItNS4yNjUtMi43MjMtNy43NjMtLjU4LTEuMjA1LTEuNDcxLTIuNDEtMi4yMy0zLjQzNi0uODQ4LTEuMjA1LTEuNzg1LTIuMDUyLTIuNDUzLTMuNDgtLjIyMy0uNDkxLS41MzUtMS4yOTQtLjIyMy0xLjgzLjEzMy0uMzU3LjI2OC0uNDkxLjYyMy0uNjI1LjU4LS40NDYgMi4yMzIuMTc5IDIuODU1LjQwMSAxLjYwNy43MTQgMi45OSAxLjMzOSA0LjM3MyAyLjI3Ni42Ny40NDYgMS4zNCAxLjI5MyAyLjE0MyAxLjUxN2guODkzYzEuNDI4LjMxMiAzLjAzMy4wODkgNC4zNzEuNDkxIDIuMzY1LjcxMyA0LjUwNiAxLjgyOSA2LjQyNiAzLjA3OSA1Ljg4OSAzLjcwMyAxMC42NjQgOC45NjggMTMuOTY1IDE1LjI1OS41MzUgMS4wMjYuNzU4IDEuOTYzIDEuMjA1IDMuMDM0LjkzOCAyLjE4NyAyLjE0MSA0LjQxNyAzLjA3OCA2LjUxNC44OTMgMi4xNDIgMS44MyA0LjI4NCAzLjEyMyA2LjAyMy43MTUuOTM3IDMuMzkxIDEuNDI4IDQuNTk2IDEuOTE4Ljg0OC4zNTcgMi4yMy43NTggMy4wMzUgMS4yNSAxLjU2MS44OTIgMy4wMzMgMi4wMDggNC41MDYgMy4wMzQuNzEyLjQ5NiAyLjk0MiAxLjYxMSAzLjAzMiAyLjU0OHoiLz48cGF0aCBmaWxsPSIjMDA2NzhjIiBkPSJNMTMzLjU2NiA1Ni4xMjRhNy41OSA3LjU5IDAgMCAwLTEuODI4LjIyNHYuMDg5aC4xMzNjLjM1Ny43MTQuOTgyIDEuMjA1IDEuNDI4IDEuODI5LjMxMi43MTQuNjcgMS40MjguOTgyIDIuMTQybC4xMzMtLjEzNGMuNjI1LS40MDEuODkzLTEuMTE1Ljg5My0yLjIzLS4yMjMtLjI2OC0uMjY4LS41OC0uNDktLjg5My0uMzEzLS40NDctLjg0OC0uNjctMS4yNTEtMS4wMjd6Ii8+PHBhdGggZmlsbD0iI2NlOGIyYyIgZD0iTTg1Ljk2IDEyOC4yMjdoMTYuNzMxYzEuOTYzIDAgMy44ODEtLjQwMiA1LjM5OC0xLjExNyAyLjQ5OC0xLjE1OCAzLjc0OC0yLjcyMSAzLjc0OC00Ljc3M3YtNC4yODNjMC0xLjY1LTEuNDI4LTMuMjU2LTQuMTQ4LTQuMjgzLTEuNDczLS41OC0zLjI1OC0uODQ4LTQuOTk4LS44NDhoLTcuMDQ5Yy0yLjM2NSAwLTMuNDgtLjcxNS0zLjc0OC0yLjI3NS0uMDQ1LS4xNzgtLjA0NS0uMzU3LS4wNDUtLjUzNXYtMi42MzNjMC0uMTc4IDAtLjMxMi4wNDUtLjQ5LjI2OC0xLjIwNS44OTItMS41NjIgMi45NDUtMS43NC4xNzggMCAuNDAxLS4wNDUuNTgtLjA0NWgxNi42NDJ2LTMuODgxSDk1LjY4N2MtMi4zNjUgMC0zLjU3LjE3OC00LjY4NS40OS0zLjQ4IDEuMTE1LTQuOTk3IDIuODExLTQuOTk3IDUuODAxdjMuMzkxYzAgMi42MzMgMi45ODkgNC44NjMgNy45NDIgNS4zOTguNTggMCAxLjExNS4wNDUgMS42OTUuMDQ1aDYuMDI0Yy4yMjMgMCAuNDQ1IDAgLjYyMy4wNDUgMS44NzUuMTc4IDIuNjMzLjQ5IDMuMjEzIDEuMTU4LjMxMi4zNTcuNDQ3LjY3LjQ0NyAxLjA3MnYzLjM5MWMwIC40MDItLjI2OC45MzgtLjg0OCAxLjM4My0uNDkyLjQ0Ny0xLjM0LjcxNS0yLjQ1NS44MDMtLjIyMyAwLS40LjA0NS0uNjI1LjA0NUg4NS45NnYzLjg4MXpNMTQ4LjE1NiAxMjEuNDQzYzAgNC4wMTYgMi45NDUgNi4yNDYgOC45NjkgNi42OTMuNTM1LjA0NSAxLjExNS4wOSAxLjY1LjA5aDE1LjE3di0zLjg4M2gtMTUuMjZjLTMuNDM2IDAtNC43MjktLjg0OC00LjcyOS0yLjl2LTIwLjEyMWgtNS44MDF2MjAuMTIxaC4wMDF6TTExNS41NDEgMTIxLjY2NnYtMTMuODNjMC0zLjUyNSAyLjQ1My01LjY2NiA3LjM2MS02LjMzNi40OTItLjA5IDEuMDcyLS4wOSAxLjU2Mi0uMDloMTEuMDY0Yy41MzUgMCAxLjAyNyAwIDEuNjA3LjA5IDQuODYzLjY3IDcuMzYxIDIuODExIDcuMzYxIDYuMzM2djEzLjgzYzAgMi44NTctMS4wNyA0LjM3My0zLjQ4IDUuMzU1bDUuNzU2IDUuMTc2aC02Ljc4MWwtNC42NDEtNC4xNS00LjY4Ni4yNjhoLTYuMjAxYy0xLjA3IDAtMi4xODYtLjEzMy0zLjQzNi0uNDktMy43MDEtLjk4My01LjQ4Ni0yLjk0Ni01LjQ4Ni02LjE1OXptNi4yOTEtLjM1NWMwIC4yMjMuMDQ1LjQuMDkuNjI1LjM1NyAxLjYwNSAxLjg3MyAyLjQ5OCA0LjE0OCAyLjQ5OGg1LjMxMWwtNC44NjMtNC4zNzNoNi43ODFsNC4yMzggMy43OTNjLjc2LS40MDIgMS4yOTUtMS4wMjcgMS40NzMtMS44My4wNDUtLjIyMy4wNDUtLjQuMDQ1LS41OHYtMTMuMjk1YzAtLjEzNSAwLS4zMTItLjA0NS0uNDkyLS4zNTctMS41MTYtMS44NzMtMi4zNjMtNC4xMDUtMi4zNjNoLTguODM0Yy0yLjU4OCAwLTQuMjM4IDEuMTE1LTQuMjM4IDIuODU1djEzLjE2MmgtLjAwMXpNMTc2LjYyMyAxMjguMjI3aC44NDh2LTMuMjEzaDEuMTZ2LS42N2gtMy4xNjh2LjY3aDEuMTZ2My4yMTN6bTYuNTE0IDBoLjc1OHYtMy44ODNoLTEuMTZsLTEuMDI1IDIuNjc4LTEuMDI1LTIuNjc4aC0xLjIwNXYzLjg4M2guODAzdi0yLjk0NWwxLjExNSAyLjk0NWguNThsMS4xMTUtMi45NDVoLjA0NXYyLjk0NWgtLjAwMXoiLz48cGF0aCBmaWxsPSIjMDA2NzhjIiBkPSJNOS43OTggOTEuNjM5Vjc3LjAwNGg0LjU1YzEuMDcxIDAgMS44My4wOSAyLjM2NS4yNjguNjY5LjI2OCAxLjIwNC43MTQgMS42NSAxLjQyOC40MDIuNjY5LjYyNSAxLjUxNy42MjUgMi40OTkgMCAxLjMzOS0uMzU2IDIuNDA5LTEuMDI2IDMuMjEzLS42NjkuODQ3LTEuODMgMS4yNDktMy40OCAxLjI0OWgtMy4wNzl2NS45NzlIOS43OTh2LS4wMDF6bTEuNjA2LTcuNjc0aDMuMTIzYy45ODIgMCAxLjY5NS0uMjIzIDIuMTQyLS42NjlzLjY2OS0xLjExNi42NjktMi4wMDhjMC0uNTgtLjEzNC0xLjA3MS0uMzU3LTEuNDczLS4yMjMtLjQ0Ni0uNDkxLS43MTMtLjgwMy0uODQ3LS4zMTItLjE3OS0uODkzLS4yMjQtMS42OTUtLjIyNGgtMy4wNzl2NS4yMjF6TTIwLjU1MSA4NC41YzAtMi40NTQuNTM2LTQuMzczIDEuNjUxLTUuNzExIDEuMTE1LTEuMzM5IDIuNDU0LTIuMDA4IDQuMTA0LTIuMDA4IDEuMDcxIDAgMi4wNTMuMjY4IDIuOS44OTIuODkzLjU4IDEuNTYyIDEuNDcyIDIuMDk3IDIuNTg4LjQ5MSAxLjE2Ljc1OCAyLjQ5OS43NTggNC4wNiAwIDIuMTg3LS40OTEgMy45NzItMS40NzMgNS4zMS0xLjExNSAxLjUxNy0yLjU0MyAyLjI3NS00LjI4MyAyLjI3NS0xLjc4NCAwLTMuMjEyLS44MDMtNC4yODMtMi4zMi0uOTgtMS4zODItMS40NzEtMy4wNzgtMS40NzEtNS4wODZ6bTEuNjUxLjA0NWMwIDEuNzg0LjQwMSAzLjIxMiAxLjIwNSA0LjE5NC43NTguOTgxIDEuNzQgMS41MTcgMi45IDEuNTE3czIuMTQyLS41MzYgMi45LTEuNTE3Yy44MDMtMS4wMjYgMS4yMDUtMi40OTkgMS4yMDUtNC40NjEgMC0xLjI1LS4yMjMtMi4zNjUtLjYyNS0zLjM0Ny0uMzEyLS43NTgtLjc1OS0xLjM4My0xLjM4My0xLjgyOWEzLjU1OSAzLjU1OSAwIDAgMC0yLjA5OC0uNjY5Yy0xLjIwNSAwLTIuMTg2LjQ5MS0yLjk0NCAxLjQ3Mi0uODAzIDEuMDI2LTEuMTYgMi41NDMtMS4xNiA0LjY0ek0zNi4xMjMgOTEuNjM5bC0zLjE2OC0xNC42MzVoMS42MDZsMS44MyA5LjU5M2MuMjIzLjk4Mi4zNTYgMi4wMDguNTM1IDIuOTlsLjUzNS0yLjY3NyAyLjMyLTkuOTA1aDEuODc0bDEuNjk1IDcuNDA3YTQ5LjQ2IDQ5LjQ2IDAgMCAxIC45ODEgNS4xNzVjLjEzNC0uOTM3LjMxMi0yLjAwOC41OC0zLjE2N2wxLjg3NC05LjQxNWgxLjY1MUw0NS4xMzUgOTEuNjRoLTEuNTYyTDQxLjAzIDgwLjQ4NWwtLjQwMi0xLjY5NWMtLjA4OS42MjUtLjIyMyAxLjIwNS0uMzEyIDEuNjk1bC0yLjU4NyAxMS4xNTRoLTEuNjA2ek00OS45MDkgOTEuNjM5Vjc3LjAwNGg4LjY1NnYxLjc0MWgtNy4wOTR2NC40NjJoNi42NDh2MS43NGgtNi42NDh2NC45OTdoNy4zNjJ2MS42OTVoLTguOTI0ek02MS4wMTkgOTEuNjM5Vjc3LjAwNGg1LjMxYzEuMTE2IDAgMS45NjMuMTM0IDIuNDU0LjQwMi41MzYuMjY4Ljk4MS43NTkgMS4zMzggMS4zODMuMzEyLjYyNS40OTEgMS4zODMuNDkxIDIuMTg3IDAgMS4xMTUtLjI2OCAyLjAwNy0uODQ4IDIuNzIxLS41OC42NjktMS40MjggMS4xMTYtMi41NDMgMS4yOTQuNDQ2LjI2OC44MDMuNTM2IDEuMDI2LjgwMy40OTEuNTguODkzIDEuMjA1IDEuMjQ5IDEuODc0bDIuMDk4IDMuOTcxaC0yLjAwOGwtMS42MDYtMy4wMzRjLS42MjUtMS4yMDQtMS4wNzEtMi4wMDgtMS4zODMtMi40MDktLjMxMi0uNDAxLS42MjUtLjY2OS0uOTM3LS44NDgtLjI2OC0uMTM0LS42NjktLjIyMy0xLjIwNS0uMjIzaC0xLjgyOXY2LjUxNGgtMS42MDd6bTEuNjA2LTguMTY1aDMuMzkxYy43NTggMCAxLjMzOC0uMDg5IDEuNjk1LS4yNjguNDAxLS4xNzkuNzE0LS40OTEuOTM3LS44NDguMjIzLS40MDEuMzEyLS44NDguMzEyLTEuMzM5IDAtLjc1OC0uMTc4LTEuMzM4LS42MjUtMS43ODQtLjQ0Ni0uNDAxLTEuMDcxLS42MjUtMS45MTgtLjYyNWgtMy43OTJ2NC44NjR6TTczLjE1NSA5MS42MzlWNzcuMDA0aDguNjU2djEuNzQxaC03LjA1djQuNDYyaDYuNjAzdjEuNzRoLTYuNjAzdjQuOTk3aDcuMzYydjEuNjk1aC04Ljk2OHpNODQuMjY0IDkxLjYzOVY3Ny4wMDRoNC4xNDljMS4wMjYgMCAxLjc4NS4wOSAyLjMyLjI2OC43MTQuMjIzIDEuMjk0LjY2OSAxLjgyOSAxLjI5NC40OTEuNjI1Ljg5MyAxLjM4MyAxLjIwNSAyLjMyLjI2OC45MzcuNDAxIDIuMDUzLjQwMSAzLjM0NyAwIDEuNjUxLS4yMjMgMy4wNzktLjcxNCA0LjIzOC0uNDkxIDEuMTYtMS4xMTUgMS45NjMtMS44NzQgMi40NTQtLjc1OC40OTEtMS43ODUuNzE0LTIuOTg5LjcxNGgtNC4zMjd6bTEuNjA3LTEuNjk1aDIuNTQzYzEuMDI2IDAgMS43ODUtLjE3OSAyLjMyLS41MzUuNTM2LS4zMTIuOTM3LS44NDggMS4yNDktMS42MDYuMzU3LS45ODEuNTM2LTIuMTg2LjUzNi0zLjU2OSAwLTEuNDczLS4xNzgtMi42NzctLjU4LTMuNTI1LS40MDItLjg0OC0uOTM4LTEuNDI4LTEuNTYyLTEuNjk2LS40MDItLjE3OC0xLjA3MS0uMjY4LTIuMDA4LS4yNjhIODUuODd2MTEuMTk5aC4wMDF6TTEwMS40NDEgOTEuNjM5Vjc3LjAwNGg0LjUwOGMuOTM2IDAgMS42NS4xMzQgMi4xODYuNDQ2LjUzNS4yNjguOTgyLjcxNCAxLjI5NSAxLjI5NC4zNTUuNjI1LjUzNSAxLjI1LjUzNSAyLjAwOCAwIC42NjktLjE4IDEuMjUtLjQ0NyAxLjc4NS0uMzEyLjUzNS0uNzEzLjk4MS0xLjI0OCAxLjI5M2EzLjY1NCAzLjY1NCAwIDAgMSAxLjY1IDEuMjk0Yy40LjYyNS41OCAxLjM4My41OCAyLjI3NnMtLjE4IDEuNjUtLjUzNSAyLjMyYy0uMzU3LjY2OS0uODQ4IDEuMTYtMS40NzMgMS40NzMtLjU4LjMxMi0xLjQyOC40NDYtMi40OTguNDQ2aC00LjU1M3ptMS42MDgtOC40NzdoMi41ODhjLjY2OCAwIDEuMTYtLjA0NCAxLjQyOC0uMTM0LjQ0NS0uMTM0Ljc1OC0uNDAxLjk4LS43MTMuMjI1LS4zMTIuMzEyLS43NTkuMzEyLTEuMzM4IDAtLjUzNi0uMDg4LS45ODItLjI2OC0xLjMzOS0uMjIzLS4zNTctLjQ5LS41OC0uODQ4LS43MTQtLjMxMi0uMTM0LS45MzgtLjE3OS0xLjc4NS0uMTc5aC0yLjQwOHY0LjQxN2guMDAxem0wIDYuNzgyaDIuOTg4Yy42MjUgMCAxLjExNS0uMDg5IDEuNDI4LS4xNzlhMi4wMTEgMi4wMTEgMCAwIDAgMS4wMjctLjg5MmMuMjY4LS4zNTcuMzU1LS44OTIuMzU1LTEuNDcycy0uMDg4LTEuMDI2LS4zMTEtMS40MjhjLS4yMjUtLjM1Ny0uNTM1LS42NjktLjkzOC0uODQ4LS4zNTctLjE3OC0uOTgyLS4yNjgtMS43ODUtLjI2OGgtMi43NjZ2NS4wODdoLjAwMnpNMTE2LjAzMSA5MS42Mzl2LTYuMjAybC00LjU5NC04LjQzM2gxLjkxOGwyLjM2MyA0LjQxN2EzMi4xMyAzMi4xMyAwIDAgMSAxLjI1IDIuNDk5Yy4zNTctLjgwMy43NTgtMS42NTEgMS4yOTUtMi41ODhsMi4zMi00LjMyOGgxLjgyOGwtNC43NzMgOC40MzN2Ni4yMDJoLTEuNjA3eiIvPjwvZz48L3N2Zz4=;" vertex="1" parent="ziE5GpueBn8EllmUU8ze-45">
          <mxGeometry x="30" y="10" width="100" height="100" as="geometry" />
        </mxCell>
        <mxCell id="ziE5GpueBn8EllmUU8ze-64" value="" style="endArrow=none;html=1;rounded=0;entryX=0;entryY=0.5;entryDx=0;entryDy=0;exitX=1;exitY=0.5;exitDx=0;exitDy=0;edgeStyle=orthogonalEdgeStyle;curved=1;" edge="1" parent="ziE5GpueBn8EllmUU8ze-85" source="ziE5GpueBn8EllmUU8ze-39" target="ziE5GpueBn8EllmUU8ze-53">
          <mxGeometry width="50" height="50" relative="1" as="geometry">
            <mxPoint x="477" y="650" as="sourcePoint" />
            <mxPoint x="527" y="600" as="targetPoint" />
          </mxGeometry>
        </mxCell>
        <mxCell id="ziE5GpueBn8EllmUU8ze-70" value="port 6379" style="edgeLabel;html=1;align=center;verticalAlign=middle;resizable=0;points=[];" connectable="0" vertex="1" parent="ziE5GpueBn8EllmUU8ze-64">
          <mxGeometry x="0.0055" y="2" relative="1" as="geometry">
            <mxPoint x="8" as="offset" />
          </mxGeometry>
        </mxCell>
        <mxCell id="ziE5GpueBn8EllmUU8ze-65" value="" style="endArrow=none;html=1;rounded=0;entryX=0;entryY=0.5;entryDx=0;entryDy=0;exitX=1;exitY=0.5;exitDx=0;exitDy=0;" edge="1" parent="ziE5GpueBn8EllmUU8ze-85" source="ziE5GpueBn8EllmUU8ze-39" target="ziE5GpueBn8EllmUU8ze-44">
          <mxGeometry width="50" height="50" relative="1" as="geometry">
            <mxPoint x="417" y="650" as="sourcePoint" />
            <mxPoint x="467" y="600" as="targetPoint" />
          </mxGeometry>
        </mxCell>
        <mxCell id="ziE5GpueBn8EllmUU8ze-68" value="port 3306" style="edgeLabel;html=1;align=center;verticalAlign=middle;resizable=0;points=[];" connectable="0" vertex="1" parent="ziE5GpueBn8EllmUU8ze-65">
          <mxGeometry x="0.1" y="2" relative="1" as="geometry">
            <mxPoint x="-1" y="1" as="offset" />
          </mxGeometry>
        </mxCell>
        <mxCell id="ziE5GpueBn8EllmUU8ze-66" value="" style="endArrow=none;html=1;rounded=0;entryX=0;entryY=0.5;entryDx=0;entryDy=0;exitX=1;exitY=0.5;exitDx=0;exitDy=0;" edge="1" parent="ziE5GpueBn8EllmUU8ze-85" source="ziE5GpueBn8EllmUU8ze-21" target="ziE5GpueBn8EllmUU8ze-39">
          <mxGeometry width="50" height="50" relative="1" as="geometry">
            <mxPoint x="317" y="590" as="sourcePoint" />
            <mxPoint x="367" y="540" as="targetPoint" />
          </mxGeometry>
        </mxCell>
        <mxCell id="ziE5GpueBn8EllmUU8ze-67" value="port 3000" style="edgeLabel;html=1;align=center;verticalAlign=middle;resizable=0;points=[];" connectable="0" vertex="1" parent="ziE5GpueBn8EllmUU8ze-66">
          <mxGeometry x="-0.1222" y="1" relative="1" as="geometry">
            <mxPoint x="3" as="offset" />
          </mxGeometry>
        </mxCell>
        <mxCell id="ziE5GpueBn8EllmUU8ze-72" value="" style="group" connectable="0" vertex="1" parent="ziE5GpueBn8EllmUU8ze-85">
          <mxGeometry x="687" y="610" width="180" height="220" as="geometry" />
        </mxCell>
        <mxCell id="ziE5GpueBn8EllmUU8ze-58" value="" style="group" connectable="0" vertex="1" parent="ziE5GpueBn8EllmUU8ze-72">
          <mxGeometry width="180" height="180" as="geometry" />
        </mxCell>
        <mxCell id="ziE5GpueBn8EllmUU8ze-53" value="" style="rounded=1;whiteSpace=wrap;html=1;fillColor=#f5f5f5;fontColor=#333333;strokeColor=#666666;" vertex="1" parent="ziE5GpueBn8EllmUU8ze-58">
          <mxGeometry width="180" height="180" as="geometry" />
        </mxCell>
        <mxCell id="ziE5GpueBn8EllmUU8ze-54" value="" style="group" connectable="0" vertex="1" parent="ziE5GpueBn8EllmUU8ze-58">
          <mxGeometry x="10" y="10" width="160" height="160" as="geometry" />
        </mxCell>
        <mxCell id="ziE5GpueBn8EllmUU8ze-55" value="" style="rounded=0;whiteSpace=wrap;html=1;" vertex="1" parent="ziE5GpueBn8EllmUU8ze-54">
          <mxGeometry width="160" height="120" as="geometry" />
        </mxCell>
        <mxCell id="ziE5GpueBn8EllmUU8ze-56" value="MySQL Container" style="rounded=0;whiteSpace=wrap;html=1;" vertex="1" parent="ziE5GpueBn8EllmUU8ze-54">
          <mxGeometry y="120" width="160" height="40" as="geometry" />
        </mxCell>
        <mxCell id="ziE5GpueBn8EllmUU8ze-28" value="" style="shape=image;verticalLabelPosition=bottom;labelBackgroundColor=default;verticalAlign=top;aspect=fixed;imageAspect=0;editableCssRules=.*;image=data:image/svg+xml,PHN2ZyB4bWxucz0iaHR0cDovL3d3dy53My5vcmcvMjAwMC9zdmciIHByZXNlcnZlQXNwZWN0UmF0aW89InhNaW5ZTWluIG1lZXQiIHZpZXdCb3g9IjAgMC41ODQwMjI1MjE5NzI2NTYyIDI1NiAyMTguNTg2OTE0MDYyNSIgaGVpZ2h0PSIyMTM0LjIwMzE0Mjc1NTY4MTciIHdpZHRoPSIyNTAwIj48cGF0aCBmaWxsPSIjOTEyNjI2IiBkPSJNMjQ1Ljk3IDE2OC45NDNjLTEzLjY2MiA3LjEyMS04NC40MzQgMzYuMjItOTkuNTAxIDQ0LjA3NS0xNS4wNjcgNy44NTYtMjMuNDM3IDcuNzgtMzUuMzQgMi4wOS0xMS45MDItNS42OS04Ny4yMTYtMzYuMTEyLTEwMC43ODMtNDIuNTk3QzMuNTY2IDE2OS4yNzEgMCAxNjYuNTM1IDAgMTYzLjk1MXYtMjUuODc2czk4LjA1LTIxLjM0NSAxMTMuODc5LTI3LjAyNGMxNS44MjgtNS42NzkgMjEuMzItNS44ODQgMzQuNzktLjk1IDEzLjQ3MiA0LjkzNiA5NC4wMTggMTkuNDY4IDEwNy4zMzEgMjQuMzQ0bC0uMDA2IDI1LjUxYy4wMDIgMi41NTgtMy4wNyA1LjM2NC0xMC4wMjQgOC45ODgiLz48cGF0aCBmaWxsPSIjQzYzMDJCIiBkPSJNMjQ1Ljk2NSAxNDMuMjJjLTEzLjY2MSA3LjExOC04NC40MzEgMzYuMjE4LTk5LjQ5OCA0NC4wNzItMTUuMDY2IDcuODU3LTIzLjQzNiA3Ljc4LTM1LjMzOCAyLjA5LTExLjkwMy01LjY4Ni04Ny4yMTQtMzYuMTEzLTEwMC43OC00Mi41OTQtMTMuNTY2LTYuNDg1LTEzLjg1LTEwLjk0OC0uNTI0LTE2LjE2NiAxMy4zMjYtNS4yMiA4OC4yMjQtMzQuNjA1IDEwNC4wNTUtNDAuMjg0IDE1LjgyOC01LjY3NyAyMS4zMTktNS44ODQgMzQuNzg5LS45NDggMTMuNDcxIDQuOTM0IDgzLjgxOSAzMi45MzUgOTcuMTMgMzcuODEgMTMuMzE2IDQuODgxIDEzLjgyNyA4LjkuMTY2IDE2LjAyIi8+PHBhdGggZmlsbD0iIzkxMjYyNiIgZD0iTTI0NS45NyAxMjcuMDc0Yy0xMy42NjIgNy4xMjItODQuNDM0IDM2LjIyLTk5LjUwMSA0NC4wNzgtMTUuMDY3IDcuODUzLTIzLjQzNyA3Ljc3Ny0zNS4zNCAyLjA4Ny0xMS45MDMtNS42ODctODcuMjE2LTM2LjExMi0xMDAuNzgzLTQyLjU5N0MzLjU2NiAxMjcuNDAyIDAgMTI0LjY3IDAgMTIyLjA4NVY5Ni4yMDZzOTguMDUtMjEuMzQ0IDExMy44NzktMjcuMDIzYzE1LjgyOC01LjY3OSAyMS4zMi01Ljg4NSAzNC43OS0uOTVDMTYyLjE0MiA3My4xNjggMjQyLjY4OCA4Ny42OTcgMjU2IDkyLjU3NGwtLjAwNiAyNS41MTNjLjAwMiAyLjU1Ny0zLjA3IDUuMzYzLTEwLjAyNCA4Ljk4NyIvPjxwYXRoIGZpbGw9IiNDNjMwMkIiIGQ9Ik0yNDUuOTY1IDEwMS4zNTFjLTEzLjY2MSA3LjEyLTg0LjQzMSAzNi4yMTgtOTkuNDk4IDQ0LjA3NS0xNS4wNjYgNy44NTQtMjMuNDM2IDcuNzc3LTM1LjMzOCAyLjA4Ny0xMS45MDMtNS42ODYtODcuMjE0LTM2LjExMi0xMDAuNzgtNDIuNTk0LTEzLjU2Ni02LjQ4My0xMy44NS0xMC45NDctLjUyNC0xNi4xNjdDMjMuMTUxIDgzLjUzNSA5OC4wNSA1NC4xNDggMTEzLjg4IDQ4LjQ3YzE1LjgyOC01LjY3OCAyMS4zMTktNS44ODQgMzQuNzg5LS45NDkgMTMuNDcxIDQuOTM0IDgzLjgxOSAzMi45MzMgOTcuMTMgMzcuODEgMTMuMzE2IDQuODggMTMuODI3IDguOS4xNjYgMTYuMDIiLz48cGF0aCBmaWxsPSIjOTEyNjI2IiBkPSJNMjQ1Ljk3IDgzLjY1M2MtMTMuNjYyIDcuMTItODQuNDM0IDM2LjIyLTk5LjUwMSA0NC4wNzgtMTUuMDY3IDcuODU0LTIzLjQzNyA3Ljc3Ny0zNS4zNCAyLjA4Ny0xMS45MDMtNS42ODctODcuMjE2LTM2LjExMy0xMDAuNzgzLTQyLjU5NUMzLjU2NiA4My45OCAwIDgxLjI0NyAwIDc4LjY2NXYtMjUuODhzOTguMDUtMjEuMzQzIDExMy44NzktMjcuMDIxYzE1LjgyOC01LjY4IDIxLjMyLTUuODg0IDM0Ljc5LS45NUMxNjIuMTQyIDI5Ljc0OSAyNDIuNjg4IDQ0LjI3OCAyNTYgNDkuMTU1bC0uMDA2IDI1LjUxMmMuMDAyIDIuNTU1LTMuMDcgNS4zNjEtMTAuMDI0IDguOTg2Ii8+PHBhdGggZmlsbD0iI0M2MzAyQiIgZD0iTTI0NS45NjUgNTcuOTNjLTEzLjY2MSA3LjEyLTg0LjQzMSAzNi4yMi05OS40OTggNDQuMDc0LTE1LjA2NiA3Ljg1NC0yMy40MzYgNy43NzctMzUuMzM4IDIuMDlDOTkuMjI3IDk4LjQwNCAyMy45MTUgNjcuOTggMTAuMzUgNjEuNDk3LTMuMjE3IDU1LjAxNS0zLjUgNTAuNTUgOS44MjUgNDUuMzMxIDIzLjE1MSA0MC4xMTMgOTguMDUgMTAuNzMgMTEzLjg4IDUuMDVjMTUuODI4LTUuNjc5IDIxLjMxOS01Ljg4MyAzNC43ODktLjk0OCAxMy40NzEgNC45MzUgODMuODE5IDMyLjkzNCA5Ny4xMyAzNy44MTEgMTMuMzE2IDQuODc2IDEzLjgyNyA4Ljg5Ny4xNjYgMTYuMDE3Ii8+PHBhdGggZmlsbD0iI0ZGRiIgZD0iTTE1OS4yODMgMzIuNzU3bC0yMi4wMSAyLjI4NS00LjkyNyAxMS44NTYtNy45NTgtMTMuMjMtMjUuNDE1LTIuMjg0IDE4Ljk2NC02LjgzOS01LjY5LTEwLjQ5OCAxNy43NTUgNi45NDQgMTYuNzM4LTUuNDgtNC41MjQgMTAuODU1IDE3LjA2NyA2LjM5MU0xMzEuMDMyIDkwLjI3NUw4OS45NTUgNzMuMjM4bDU4Ljg2LTkuMDM1LTE3Ljc4MyAyNi4wNzJNNzQuMDgyIDM5LjM0N2MxNy4zNzUgMCAzMS40NiA1LjQ2IDMxLjQ2IDEyLjE5NCAwIDYuNzM2LTE0LjA4NSAxMi4xOTUtMzEuNDYgMTIuMTk1cy0zMS40Ni01LjQ2LTMxLjQ2LTEyLjE5NWMwLTYuNzM0IDE0LjA4NS0xMi4xOTQgMzEuNDYtMTIuMTk0Ii8+PHBhdGggZmlsbD0iIzYyMUIxQyIgZD0iTTE4NS4yOTUgMzUuOTk4bDM0LjgzNiAxMy43NjYtMzQuODA2IDEzLjc1My0uMDMtMjcuNTIiLz48cGF0aCBmaWxsPSIjOUEyOTI4IiBkPSJNMTQ2Ljc1NSA1MS4yNDNsMzguNTQtMTUuMjQ1LjAzIDI3LjUxOS0zLjc3OSAxLjQ3OC0zNC43OTEtMTMuNzUyIi8+PC9zdmc+;" vertex="1" parent="ziE5GpueBn8EllmUU8ze-54">
          <mxGeometry x="33.129999999999995" y="20" width="93.74" height="80" as="geometry" />
        </mxCell>
        <mxCell id="ziE5GpueBn8EllmUU8ze-61" value="Option Use&amp;nbsp;" style="text;html=1;align=center;verticalAlign=middle;whiteSpace=wrap;rounded=0;" vertex="1" parent="ziE5GpueBn8EllmUU8ze-72">
          <mxGeometry x="60" y="190" width="70" height="30" as="geometry" />
        </mxCell>
        <mxCell id="ziE5GpueBn8EllmUU8ze-27" value="" style="shape=image;verticalLabelPosition=bottom;labelBackgroundColor=default;verticalAlign=top;aspect=fixed;imageAspect=0;editableCssRules=.*;image=data:image/svg+xml,PHN2ZyB4bWxucz0iaHR0cDovL3d3dy53My5vcmcvMjAwMC9zdmciIHZpZXdCb3g9IjAgMCAyNTUuNjgwMDA3OTM0NTcwMyAyMTQuNTEwNjUwNjM0NzY1NjIiIGhlaWdodD0iMjA5NS4yMjAzMDg1MjU2MTgiIHdpZHRoPSIyNDk2Ljg3NTA3NzQ4NjAzOCI+PGcgZmlsbC1ydWxlPSJldmVub2RkIiBmaWxsPSJub25lIj48cGF0aCBmaWxsPSIjMzY0NTQ4IiBkPSJNMzguNjE3IDE3My45ODR2LTE2LjM2MmMwLTIuMTUgMS4zNDQtMy44NzcgMy41Ny0zLjg3N2guNjE2YzIuMjI1IDAgMy41NjMgMS43MjkgMy41NjMgMy44Nzd2MzQuNDQ3YzAgOC40LTQuMTUgMTUuMDg0LTExLjM4MiAxOS4zNDJhMjEuMzc0IDIxLjM3NCAwIDAgMS0xMC45NDUgMi45ODVoLTEuNTM3Yy04LjQwMiAwLTE1LjA3Ny00LjE1My0xOS4zNDItMTEuMzhhMjEuMzE0IDIxLjMxNCAwIDAgMS0yLjk4NC0xMC45NDd2LTEuNTM1YzAtOC40MDMgNC4xNTItMTUuMDgzIDExLjM3OC0xOS4zNDlhMjEuMjk4IDIxLjI5OCAwIDAgMSAxMC45NDgtMi45ODVoMS41MzdjNS42ODYgMCAxMC41MSAyLjIwNCAxNC41NzggNS43ODR6TTcuOTI0IDE5MS4zYzAgNi4wNjggMi45NDEgMTAuNjMgOC4yNTggMTMuNTQgMi4xNSAxLjE3NiA0LjQ4NCAxLjgwOCA2LjkzNyAxLjgwOCA1Ljk1NiAwIDEwLjM3NC0yLjgxIDEzLjQyMS03Ljg1NyAxLjQxNy0yLjM0OCAyLjA3Ny00LjkxNyAyLjA3Ny03LjY0OCAwLTUuMjYtMi40OS05LjM2NS02LjcyOS0xMi40MTQtMi41Ny0xLjg0OC01LjQ2My0yLjc3NS04LjYxOC0yLjc3NS02LjQ5MiAwLTExLjE2NCAzLjI4LTEzLjk2OCA5LjEwNi0uOTQ2IDEuOTctMS4zNzggNC4wNjEtMS4zNzggNi4yNHptNjUuMzI0LTIzLjFoMS4wNzRjOC45NzggMCAxNS44MDYgNC4zNTUgMjAuMTMzIDEyLjE5MiAxLjczIDMuMTM1IDIuNjU2IDYuNTU3IDIuNjU2IDEwLjE0MnYxLjUzNWMwIDguNC00LjE0MiAxNS4wOTMtMTEuMzg1IDE5LjM0My0zLjM1MyAxLjk2Ny03LjA1NyAyLjk4NC0xMC45NDMgMi45ODRoLTEuNTM1Yy04LjQwMiAwLTE1LjA3OS00LjE1My0xOS4zNDItMTEuMzhhMjEuMzE2IDIxLjMxNiAwIDAgMS0yLjk4Ny0xMC45NDd2LTEuNTM1YzAtOC40MDQgNC4xNjktMTUuMDYyIDExLjM3Ny0xOS4zNDcgMy4zNTEtMS45OTEgNy4wNTgtMi45ODcgMTAuOTUyLTIuOTg3em0tMTQuNTggMjMuMWMwIDUuODkgMi44OSAxMC4yMjMgNy44NjUgMTMuMjcgMi4zMzYgMS40MyA0LjkwOSAyLjA3OCA3LjYzOCAyLjA3OCA1LjgyIDAgMTAuMTIyLTIuOTUxIDEzLjExNi03Ljg2MyAxLjQyOC0yLjM0MiAyLjA3NC00LjkxNSAyLjA3NC03LjY0MiAwLTUuNDc3LTIuNjM4LTkuNjYxLTcuMTQ4LTEyLjY5My0yLjQ3MS0xLjY2My01LjIyMi0yLjQ5Ni04LjE5OC0yLjQ5Ni02LjQ5MiAwLTExLjE2NCAzLjI4LTEzLjk2NyA5LjEwNi0uOTQ4IDEuOTctMS4zOCA0LjA2MS0xLjM4IDYuMjR6bTcwLjY1Ni0xNC43MjdjLTEuMTctLjU0OC0zLjM2LS43My00LjYyNC0uNzc4LTYuNDc0LS4yNDQtMTEuMTU4IDMuNDAyLTEzLjkwNiA5LjExMy0uOTQ5IDEuOTctMS4zODIgNC4wNTUtMS4zODIgNi4yMzUgMCA2LjYzNyAzLjQ4NSAxMS4yODQgOS40MDkgMTQuMTE3IDIuMTY0IDEuMDM0IDQuOTU4IDEuMjMgNy4zMjMgMS4yMyAyLjA4IDAgNS4wMi0xLjI3NCA2Ljg2Ni0yLjE1MWwuMzItLjE1MmgxLjQzM2wuMTU4LjAzMmMxLjc2Mi4zNjcgMy4wOTIgMS40ODQgMy4wOTIgMy4zOHYuNzY3YzAgNC43MTgtOC42MjIgNS43OTgtMTEuOTEyIDYuMDI4LTExLjYxLjgwMy0yMC4yOTMtNS41NzMtMjMuNjAzLTE2LjY0Ny0uNTc1LTEuOTIzLS44MzQtMy44MzMtLjgzNC01LjgzN3YtMS41MzNjMC04LjQwMyA0LjE3LTE1LjA1OSAxMS4zNzctMTkuMzQgMy4zNTEtMS45OSA3LjA1Ny0yLjk5IDEwLjk1LTIuOTloMS41MzZjNC4xMyAwIDcuOTM0IDEuMTczIDExLjM0NCAzLjUwMmwuMjguMTk0LjE3Ny4yOTJjLjM2OC42MS42ODUgMS4zMTYuNjg1IDIuMDQydi43NjdjMCAxLjk3OC0xLjQ4IDMuMDQyLTMuMjY2IDMuMzg2bC0uMTQ4LjAyNmgtLjQ1OGMtMS4xNTYgMC0zLjc4NS0xLjE5Ny00LjgxNy0xLjY4M3ptMjUuMTM0IDUuMjQ3YzMuMDEtMy4wMTQgNi4wMy02LjAyMiA5LjA4NS04Ljk4Ni44NTEtLjgyNyA0LjA3NC00LjMyNyA1LjM0My00LjMyN2gxLjM4OGwuMTU4LjAzM2MxLjc2OC4zNjcgMy4wOTIgMS40ODYgMy4wOTIgMy4zODZ2Ljc2NmMwIDEuMjk2LTEuNTE4IDIuODAyLTIuMzU1IDMuNjg5LTEuNzggMS44ODctMy42NTQgMy43MTItNS40NzYgNS41NmwtOS4zNjIgOS41MDRjNC4wMzEgNC4wNCA4LjA1OCA4LjA4MyAxMi4wNTYgMTIuMTU0YTMxMy4zMDQgMzEzLjMwNCAwIDAgMSAzLjMwMSAzLjM5NmMuMzg1LjQwNS45NTMuOTA5IDEuMjc2IDEuNDcuMzQ3LjUyNi41NiAxLjExOS41NiAxLjc1MnYuOGwtLjA0NS4xODVjLS40MzUgMS43NjgtMS41NTcgMy4xOTQtMy41MTYgMy4xOTRoLS42MTdjLTEuMjgyIDAtMi43My0xLjQ1LTMuNjA4LTIuMjc5LTEuODEtMS43MDYtMy41NTctMy41LTUuMzMxLTUuMjQzbC01Ljk0OS01Ljg0djkuMzM0YzAgMi4xNS0xLjM0NiAzLjg3OC0zLjU2OSAzLjg3OGgtLjYxYy0yLjIyNiAwLTMuNTctMS43MjgtMy41Ny0zLjg3OHYtNTIuNTk2YzAtMi4xNSAxLjM0NS0zLjg3IDMuNTctMy44N2guNjFjMi4yMjMgMCAzLjU2OSAxLjcyIDMuNTY5IDMuODd2MjQuMDQ4em05Ni41NzctMTMuMzEzaC43N2MyLjMyNCAwIDMuODc1IDEuNTY2IDMuODc1IDMuODc3IDAgMy4yMDgtMy4wNjcgNC4wMjktNS43MiA0LjAyOS0zLjQ4IDAtNi44MDMgMi4xMDctOS4yMDIgNC40Ny0yLjk5MSAyLjk0OS00LjMgNi43MjYtNC4zIDEwLjg3OHYxOC43NTljMCAyLjE1LTEuMzQzIDMuODc2LTMuNTcgMy44NzZoLS42MTJjLTIuMjI3IDAtMy41NjktMS43MjUtMy41NjktMy44NzZ2LTE5LjgzNmMwLTcuNjE3IDMuNzA4LTEzLjgzNSA5Ljg5LTE4LjE5NiAzLjY5MS0yLjYwNSA3LjkxOS0zLjk4IDEyLjQzOC0zLjk4em0tNTUuMDc0IDM3LjE3NmMyLjgyLjk4NSA2LjAzNS44NDQgOC45MjguMzQgMS40OC0uNjI5IDUuMjY0LTIuMjggNi42NTYtMi4wMzhsLjIxNy4wMzcuMi4wOThjLjg1LjQxMiAxLjY2MS45OTUgMi4wOTUgMS44NiAxLjAxNCAyLjAyNy41MjcgNC4wNjUtMS40NjUgNS4yMTZsLS42NjMuMzgzYy03LjM1IDQuMjQyLTE1LjE2OCAzLjY1NC0yMi40OTUtLjMwOC0zLjUwMy0xLjg5NC02LjE4My00LjcwNS04LjE2LTguMTMybC0uNDYyLS44MDFjLTQuNzE5LTguMTcyLTQuMDgyLTE2Ljc2OCAxLjI0LTI0LjUzOSAxLjgzNy0yLjY4NiA0LjIzOC00Ljc2MSA3LjA0NS02LjM4NGwxLjA2Mi0uNjEzYzYuOTIyLTMuOTk2IDE0LjM0MS0zLjcyMiAyMS40NS0uMjE1IDMuODIzIDEuODg2IDYuOTIgNC42OTcgOS4wNTQgOC4zOTRsLjM4NC42NjZjMS41NSAyLjY4Ni0uNDU4IDUuMDI2LTIuNTMxIDYuNjI2LTIuNDA2IDEuODU2LTQuODM1IDQuMDktNy4xNDEgNi4wOC01LjE0MiA0LjQzOS0xMC4yNzYgOC44ODgtMTUuNDE0IDEzLjMzem0tNi42NTUtNC42NzRjNS43NS00LjkzIDExLjUwMi05Ljg2NSAxNy4yMzctMTQuODE2IDEuOTYtMS42OSA0LjEwOS0zLjQ0NCA2LjA1My01LjIyMS0xLjU2LTEuOTY2LTQuMTY2LTMuMzgzLTYuMzgtNC4yMjgtNC40Ny0xLjcwMy04Ljg3Ny0xLjEzMS0xMi45NzYgMS4yMzUtNS4zNjUgMy4wOTgtNy42NSA4LjAzMS03LjQ1IDE0LjE3LjA4IDIuNDE4LjczIDQuNzQ4IDIuMDEzIDYuODA1LjQ1Mi43MjUuOTU3IDEuNDA2IDEuNTAzIDIuMDU1ek0xNDcuNDg4IDQ1LjczMmgyMi44NjZ2MjMuMzc1aDExLjU2MWM1LjM0IDAgMTAuODMxLS45NTEgMTUuODg3LTIuNjY0IDIuNDg1LS44NDMgNS4yNzMtMi4wMTUgNy43MjQtMy40OS0zLjIyOC00LjIxNC00Ljg3Ni05LjUzNS01LjM2LTE0Ljc4LS42Ni03LjEzNS43OC0xNi40MjEgNS42MDgtMjIuMDA1bDIuNDA0LTIuNzggMi44NjQgMi4zMDNjNy4yMTEgNS43OTMgMTMuMjc2IDEzLjg4OSAxNC4zNDUgMjMuMTE4IDguNjgzLTIuNTU0IDE4Ljg3OC0xLjk1IDI2LjUzMSAyLjQ2N2wzLjE0IDEuODEyLTEuNjUyIDMuMjI2QzI0Ni45MzMgNjguOTQ2IDIzMy40IDcyLjg2IDIyMC4xNyA3Mi4xNjdjLTE5Ljc5NyA0OS4zMDktNjIuODk4IDcyLjY1My0xMTUuMTU3IDcyLjY1My0yNyAwLTUxLjc3LTEwLjA5My02NS44NzYtMzQuMDQ3bC0uMjMxLS4zOS0yLjA1NS00LjE4MmMtNC43NjgtMTAuNTQ0LTYuMzUyLTIyLjA5NS01LjI3OC0zMy42MzdsLjMyMy0zLjQ1N0g1MS40NVY0NS43MzJoMjIuODY1VjIyLjg2Nmg0NS43MzNWMGgyNy40NHY0NS43MzIiLz48cGF0aCBmaWxsPSIjMjJBMEM4IiBkPSJNMjIxLjU3IDU0LjM4YzEuNTMzLTExLjkxNi03LjM4NC0yMS4yNzUtMTIuOTE0LTI1LjcxOS02LjM3MyA3LjM2OC03LjM2MyAyNi42NzggMi42MzUgMzQuODA4LTUuNTggNC45NTYtMTcuMzM3IDkuNDQ4LTI5LjM3NiA5LjQ0OEgzNS4zN2MtMS4xNyAxMi41NjcgMS4wMzYgMjQuMTQgNi4wNzUgMzQuMDQ1bDEuNjY3IDMuMDVhNTYuNTM2IDU2LjUzNiAwIDAgMCAzLjQ1NSA1LjE4NGM2LjAyNS4zODcgMTEuNTguNTIgMTYuNjYyLjQwOGguMDAyYzkuOTg3LS4yMiAxOC4xMzYtMS40IDI0LjMxMi0zLjU0YTEuNzYxIDEuNzYxIDAgMCAxIDEuMTUzIDMuMzI2Yy0uODIyLjI4Ni0xLjY3OC41NTItMi41NjIuODA1aC0uMDAzYy00Ljg2MyAxLjM4OS0xMC4wNzggMi4zMjMtMTYuODA2IDIuNzM4LjQuMDA3LS40MTYuMDYtLjQxOC4wNi0uMjI5LjAxNS0uNTE3LjA0OC0uNzQ3LjA2LTIuNjQ4LjE0OS01LjUwNi4xOC04LjQyOC4xOC0zLjE5NiAwLTYuMzQzLS4wNi05Ljg2Mi0uMjRsLS4wOS4wNmMxMi4yMSAxMy43MjQgMzEuMzAyIDIxLjk1NSA1NS4yMzQgMjEuOTU1IDUwLjY0OCAwIDkzLjYwOC0yMi40NTIgMTEyLjYzMi03Mi44NTcgMTMuNDk2IDEuMzg1IDI2LjQ2Ny0yLjA1NyAzMi4zNjctMTMuNTc1LTkuMzk4LTUuNDIzLTIxLjQ4NC0zLjY5NC0yOC40NDMtLjE5NiIvPjxwYXRoIGZpbGw9IiMzN0IxRDkiIGQ9Ik0yMjEuNTcgNTQuMzhjMS41MzMtMTEuOTE2LTcuMzg0LTIxLjI3NS0xMi45MTQtMjUuNzE5LTYuMzczIDcuMzY4LTcuMzYzIDI2LjY3OCAyLjYzNSAzNC44MDgtNS41OCA0Ljk1Ni0xNy4zMzcgOS40NDgtMjkuMzc2IDkuNDQ4SDQ0LjA0OGMtLjU5OCAxOS4yNDYgNi41NDQgMzMuODU1IDE5LjE4IDQyLjY4N2guMDAzYzkuOTg3LS4yMiAxOC4xMzYtMS40IDI0LjMxMi0zLjU0YTEuNzYxIDEuNzYxIDAgMCAxIDEuMTUzIDMuMzI2Yy0uODIyLjI4Ni0xLjY3OC41NTItMi41NjIuODA1aC0uMDAzYy00Ljg2MyAxLjM4OS0xMC41MjYgMi40NDMtMTcuMjU0IDIuODU4LS4wMDIgMC0uMTYzLS4xNTUtLjE2NS0uMTU1IDE3LjIzNyA4Ljg0MiA0Mi4yMyA4LjgxIDcwLjg4NS0yLjE5NyAzMi4xMy0xMi4zNDQgNjIuMDI5LTM1Ljg2IDgyLjg5LTYyLjc1Ny0uMzE0LjE0Mi0uNjIuMjg3LS45MTcuNDM2Ii8+PHBhdGggZmlsbD0iIzFCODFBNSIgZD0iTTM1LjY0NSA4OC4xODZjLjkxIDYuNzMyIDIuODggMTMuMDM1IDUuOCAxOC43NzZsMS42NjcgMy4wNWE1Ni40MzIgNTYuNDMyIDAgMCAwIDMuNDU1IDUuMTg0YzYuMDI2LjM4NyAxMS41ODEuNTIgMTYuNjY0LjQwOCA5Ljk4Ny0uMjIgMTguMTM2LTEuNCAyNC4zMTItMy41NGExLjc2MSAxLjc2MSAwIDAgMSAxLjE1MyAzLjMyNmMtLjgyMi4yODYtMS42NzguNTUyLTIuNTYyLjgwNWgtLjAwM2MtNC44NjMgMS4zODktMTAuNDk2IDIuMzgzLTE3LjIyNCAyLjc5OS0uMjMxLjAxNC0uNjM0LjAxNy0uODY3LjAzLTIuNjQ2LjE0OC01LjQ3NS4yMzktOC4zOTguMjM5LTMuMTk1IDAtNi40NjMtLjA2MS05Ljk4LS4yNCAxMi4yMSAxMy43MjQgMzEuNDIgMjEuOTg1IDU1LjM1MiAyMS45ODUgNDMuMzYgMCA4MS4wODQtMTYuNDU4IDEwMi45NzktNTIuODIySDM1LjY0NSIvPjxwYXRoIGZpbGw9IiMxRDkxQjQiIGQ9Ik00NS4zNjcgODguMTg2YzIuNTkyIDExLjgyIDguODIxIDIxLjA5OSAxNy44NjQgMjcuNDE4IDkuOTg3LS4yMiAxOC4xMzYtMS40IDI0LjMxMi0zLjU0YTEuNzYxIDEuNzYxIDAgMCAxIDEuMTUzIDMuMzI2Yy0uODIyLjI4Ni0xLjY3OC41NTItMi41NjIuODA1aC0uMDAzYy00Ljg2MyAxLjM4OS0xMC42MTUgMi4zODMtMTcuMzQ0IDIuNzk5IDE3LjIzNiA4Ljg0IDQyLjE1NyA4LjcxMyA3MC44MS0yLjI5MyAxNy4zMzQtNi42NiAzNC4wMTctMTYuNTc0IDQ4Ljk4NC0yOC41MTVINDUuMzY3Ii8+PHBhdGggZmlsbD0iIzIzQTNDMiIgZD0iTTU1LjI2IDQ5LjU0M2gxOS44MTh2MTkuODE4SDU1LjI2VjQ5LjU0M3ptMS42NTEgMS42NTJoMS41NjRWNjcuNzFoLTEuNTY0VjUxLjE5NXptMi45NCAwaDEuNjI3VjY3LjcxaC0xLjYyNlY1MS4xOTV6bTMuMDAyIDBoMS42MjdWNjcuNzFoLTEuNjI3VjUxLjE5NXptMy4wMDQgMGgxLjYyNlY2Ny43MWgtMS42MjZWNTEuMTk1em0zLjAwMyAwaDEuNjI2VjY3LjcxSDY4Ljg2VjUxLjE5NXptMy4wMDIgMGgxLjU2NVY2Ny43MWgtMS41NjVWNTEuMTk1ek03OC4xMjYgMjYuNjc3aDE5LjgxOXYxOS44MTdoLTE5LjgyVjI2LjY3N3ptMS42NTIgMS42NTJoMS41NjN2MTYuNTE0aC0xLjU2M1YyOC4zMjl6bTIuOTQgMGgxLjYyNnYxNi41MTRoLTEuNjI1VjI4LjMyOXptMy4wMDIgMGgxLjYyNnYxNi41MTRIODUuNzJWMjguMzI5em0zLjAwMyAwaDEuNjI2djE2LjUxNGgtMS42MjZWMjguMzI5em0zLjAwMyAwaDEuNjI3djE2LjUxNGgtMS42MjdWMjguMzI5em0zLjAwMiAwaDEuNTY2djE2LjUxNGgtMS41NjZWMjguMzI5eiIvPjxwYXRoIGZpbGw9IiMzNEJCREUiIGQ9Ik03OC4xMjYgNDkuNTQzaDE5LjgxOXYxOS44MThoLTE5LjgyVjQ5LjU0M3ptMS42NTIgMS42NTJoMS41NjNWNjcuNzFoLTEuNTYzVjUxLjE5NXptMi45NCAwaDEuNjI2VjY3LjcxaC0xLjYyNVY1MS4xOTV6bTMuMDAyIDBoMS42MjZWNjcuNzFIODUuNzJWNTEuMTk1em0zLjAwMyAwaDEuNjI2VjY3LjcxaC0xLjYyNlY1MS4xOTV6bTMuMDAzIDBoMS42MjdWNjcuNzFoLTEuNjI3VjUxLjE5NXptMy4wMDIgMGgxLjU2NlY2Ny43MWgtMS41NjZWNTEuMTk1eiIvPjxwYXRoIGZpbGw9IiMyM0EzQzIiIGQ9Ik0xMDAuOTkzIDQ5LjU0M2gxOS44MTh2MTkuODE4aC0xOS44MThWNDkuNTQzem0xLjY1MSAxLjY1MmgxLjU2M1Y2Ny43MWgtMS41NjNWNTEuMTk1em0yLjk0IDBoMS42MjZWNjcuNzFoLTEuNjI2VjUxLjE5NXptMy4wMDMgMGgxLjYyNlY2Ny43MWgtMS42MjZWNTEuMTk1em0zLjAwMyAwaDEuNjI2VjY3LjcxaC0xLjYyNlY1MS4xOTV6bTMuMDAyIDBoMS42MjhWNjcuNzFoLTEuNjI4VjUxLjE5NXptMy4wMDMgMGgxLjU2NFY2Ny43MWgtMS41NjRWNTEuMTk1eiIvPjxwYXRoIGZpbGw9IiMzNEJCREUiIGQ9Ik0xMDAuOTkzIDI2LjY3N2gxOS44MTh2MTkuODE3aC0xOS44MThWMjYuNjc3em0xLjY1MSAxLjY1MmgxLjU2M3YxNi41MTRoLTEuNTYzVjI4LjMyOXptMi45NCAwaDEuNjI2djE2LjUxNGgtMS42MjZWMjguMzI5em0zLjAwMyAwaDEuNjI2djE2LjUxNGgtMS42MjZWMjguMzI5em0zLjAwMyAwaDEuNjI2djE2LjUxNGgtMS42MjZWMjguMzI5em0zLjAwMiAwaDEuNjI4djE2LjUxNGgtMS42MjhWMjguMzI5em0zLjAwMyAwaDEuNTY0djE2LjUxNGgtMS41NjRWMjguMzI5ek0xMjMuODU5IDQ5LjU0M2gxOS44MTh2MTkuODE4aC0xOS44MThWNDkuNTQzem0xLjY1MiAxLjY1MmgxLjU2M1Y2Ny43MWgtMS41NjNWNTEuMTk1em0yLjk0IDBoMS42MjZWNjcuNzFoLTEuNjI2VjUxLjE5NXptMy4wMDIgMGgxLjYyNlY2Ny43MWgtMS42MjZWNTEuMTk1em0zLjAwMyAwaDEuNjI3VjY3LjcxaC0xLjYyN1Y1MS4xOTV6bTMuMDAzIDBoMS42MjdWNjcuNzFoLTEuNjI3VjUxLjE5NXptMy4wMDMgMGgxLjU2NFY2Ny43MWgtMS41NjRWNTEuMTk1eiIvPjxwYXRoIGZpbGw9IiMyM0EzQzIiIGQ9Ik0xMjMuODU5IDI2LjY3N2gxOS44MTh2MTkuODE3aC0xOS44MThWMjYuNjc3em0xLjY1MiAxLjY1MmgxLjU2M3YxNi41MTRoLTEuNTYzVjI4LjMyOXptMi45NCAwaDEuNjI2djE2LjUxNGgtMS42MjZWMjguMzI5em0zLjAwMiAwaDEuNjI2djE2LjUxNGgtMS42MjZWMjguMzI5em0zLjAwMyAwaDEuNjI3djE2LjUxNGgtMS42MjdWMjguMzI5em0zLjAwMyAwaDEuNjI3djE2LjUxNGgtMS42MjdWMjguMzI5em0zLjAwMyAwaDEuNTY0djE2LjUxNGgtMS41NjRWMjguMzI5eiIvPjxwYXRoIGZpbGw9IiMzNEJCREUiIGQ9Ik0xMjMuODU5IDMuODFoMTkuODE4VjIzLjYzaC0xOS44MThWMy44MXptMS42NTIgMS42NTFoMS41NjN2MTYuNTE2aC0xLjU2M1Y1LjQ2em0yLjk0IDBoMS42MjZ2MTYuNTE2aC0xLjYyNlY1LjQ2em0zLjAwMiAwaDEuNjI2djE2LjUxNmgtMS42MjZWNS40NnptMy4wMDMgMGgxLjYyN3YxNi41MTZoLTEuNjI3VjUuNDZ6bTMuMDAzIDBoMS42Mjd2MTYuNTE2aC0xLjYyN1Y1LjQ2em0zLjAwMyAwaDEuNTY0djE2LjUxNmgtMS41NjRWNS40NnoiLz48cGF0aCBmaWxsPSIjMjNBM0MyIiBkPSJNMTQ2LjcyNSA0OS41NDNoMTkuODE4djE5LjgxOGgtMTkuODE4VjQ5LjU0M3ptMS42NSAxLjY1MmgxLjU2NVY2Ny43MWgtMS41NjRWNTEuMTk1em0yLjk0IDBoMS42MjdWNjcuNzFoLTEuNjI2VjUxLjE5NXptMy4wMDQgMGgxLjYyN1Y2Ny43MWgtMS42MjdWNTEuMTk1em0zLjAwMiAwaDEuNjI3VjY3LjcxaC0xLjYyN1Y1MS4xOTV6bTMuMDA0IDBoMS42MjZWNjcuNzFoLTEuNjI2VjUxLjE5NXptMy4wMDIgMGgxLjU2NFY2Ny43MWgtMS41NjRWNTEuMTk1eiIvPjxwYXRoIGZpbGw9IiNEM0VDRUMiIGQ9Ik05Ni43MDQgMTAxLjQ5MmE1LjQ2OCA1LjQ2OCAwIDEgMS0uMDAyIDEwLjkzNSA1LjQ2OCA1LjQ2OCAwIDAgMSAuMDAyLTEwLjkzNSIvPjxwYXRoIGZpbGw9IiMzNjQ1NDgiIGQ9Ik05Ni43MDQgMTAzLjA0M2MuNSAwIC45NzcuMDk0IDEuNDE3LjI2NWExLjU5OCAxLjU5OCAwIDAgMCAuNzk4IDIuOThjLjYwNSAwIDEuMTMtLjMzNSAxLjQwMi0uODMxYTMuOTE1IDMuOTE1IDAgMSAxLTMuNjE3LTIuNDE0TTAgOTAuMTYyaDI1NC4zMjdjLTUuNTM3LTEuNDA0LTE3LjUyLTMuMzAyLTE1LjU0NC0xMC41Ni0xMC4wNyAxMS42NTItMzQuMzUzIDguMTc1LTQwLjQ4MiAyLjQzLTYuODI0IDkuODk4LTQ2LjU1NCA2LjEzNS00OS4zMjUtMS41NzYtOC41NTYgMTAuMDQxLTM1LjA2NyAxMC4wNDEtNDMuNjIzIDAtMi43NzMgNy43MTEtNDIuNTAyIDExLjQ3NC00OS4zMjcgMS41NzUtNi4xMjggNS43NDYtMzAuNDEgOS4yMjMtNDAuNDgtMi40MjhDMTcuNTIyIDg2Ljg2IDUuNTM5IDg4Ljc1OCAwIDkwLjE2MyIvPjxwYXRoIGZpbGw9IiNCREQ5RDciIGQ9Ik0xMTEuMjM3IDE0MC44OWMtMTMuNTQtNi40MjUtMjAuOTcxLTE1LjE2LTI1LjEwNi0yNC42OTQtNS4wMyAxLjQzNS0xMS4wNzUgMi4zNTMtMTguMSAyLjc0Ny0yLjY0Ni4xNDgtNS40My4yMjQtOC4zNS4yMjQtMy4zNjggMC02LjkxNy0uMS0xMC42NDMtLjI5NyAxMi40MTcgMTIuNDEgMjcuNjkyIDIxLjk2NCA1NS45NzYgMjIuMTM4IDIuMDg4IDAgNC4xNi0uMDQgNi4yMjMtLjExOCIvPjxwYXRoIGZpbGw9IiNEM0VDRUMiIGQ9Ik05MS4xNiAxMjQuOTk0Yy0xLjg3My0yLjU0My0zLjY5LTUuNzM5LTUuMDI2LTguOC01LjAzIDEuNDM3LTExLjA3NyAyLjM1NS0xOC4xMDMgMi43NSA0LjgyNiAyLjYxOSAxMS43MjcgNS4wNDYgMjMuMTMgNi4wNSIvPjwvZz48L3N2Zz4=;" vertex="1" parent="ziE5GpueBn8EllmUU8ze-85">
          <mxGeometry x="163.37" y="659" width="107.26" height="90" as="geometry" />
        </mxCell>
        <mxCell id="ziE5GpueBn8EllmUU8ze-78" value="" style="endArrow=none;html=1;rounded=0;exitX=0.5;exitY=0;exitDx=0;exitDy=0;entryX=0.5;entryY=1;entryDx=0;entryDy=0;edgeStyle=orthogonalEdgeStyle;curved=1;" edge="1" parent="ziE5GpueBn8EllmUU8ze-85" source="ziE5GpueBn8EllmUU8ze-21" target="ziE5GpueBn8EllmUU8ze-80">
          <mxGeometry width="50" height="50" relative="1" as="geometry">
            <mxPoint x="390" y="220" as="sourcePoint" />
            <mxPoint x="320" y="180" as="targetPoint" />
            <Array as="points">
              <mxPoint x="217" y="260" />
              <mxPoint x="497" y="260" />
            </Array>
          </mxGeometry>
        </mxCell>
        <mxCell id="ziE5GpueBn8EllmUU8ze-87" value="port 8000" style="edgeLabel;html=1;align=center;verticalAlign=middle;resizable=0;points=[];" connectable="0" vertex="1" parent="ziE5GpueBn8EllmUU8ze-78">
          <mxGeometry x="0.893" y="4" relative="1" as="geometry">
            <mxPoint x="-276" y="97" as="offset" />
          </mxGeometry>
        </mxCell>
        <mxCell id="ziE5GpueBn8EllmUU8ze-82" value="" style="group" connectable="0" vertex="1" parent="ziE5GpueBn8EllmUU8ze-85">
          <mxGeometry x="427" y="40" width="140" height="140" as="geometry" />
        </mxCell>
        <mxCell id="ziE5GpueBn8EllmUU8ze-80" value="" style="rounded=1;whiteSpace=wrap;html=1;" vertex="1" parent="ziE5GpueBn8EllmUU8ze-82">
          <mxGeometry width="140" height="140" as="geometry" />
        </mxCell>
        <mxCell id="ziE5GpueBn8EllmUU8ze-75" value="&lt;div&gt;&lt;br&gt;&lt;/div&gt;" style="points=[];aspect=fixed;html=1;align=center;shadow=0;dashed=0;shape=mxgraph.alibaba_cloud.user;" vertex="1" parent="ziE5GpueBn8EllmUU8ze-82">
          <mxGeometry x="25" y="10" width="90" height="90" as="geometry" />
        </mxCell>
        <mxCell id="ziE5GpueBn8EllmUU8ze-76" value="User Browser" style="text;html=1;align=center;verticalAlign=middle;whiteSpace=wrap;rounded=0;" vertex="1" parent="ziE5GpueBn8EllmUU8ze-82">
          <mxGeometry x="17.5" y="100" width="105" height="30" as="geometry" />
        </mxCell>
      </root>
    </mxGraphModel>
  </diagram>
</mxfile>
